<mxfile host="Electron" agent="Mozilla/5.0 (Windows NT 10.0; Win64; x64) AppleWebKit/537.36 (KHTML, like Gecko) draw.io/26.0.4 Chrome/128.0.6613.186 Electron/32.2.5 Safari/537.36" version="26.0.4">
  <diagram name="Página-1" id="kXVMs5pG_fd6pZZI3zCy">
    <mxGraphModel dx="1193" dy="896" grid="1" gridSize="10" guides="1" tooltips="1" connect="1" arrows="1" fold="1" page="1" pageScale="1" pageWidth="827" pageHeight="1169" math="0" shadow="0">
      <root>
        <mxCell id="0" />
        <mxCell id="1" parent="0" />
        <mxCell id="27f1Ki7FUUIDglzsM97B-7" style="edgeStyle=orthogonalEdgeStyle;rounded=0;orthogonalLoop=1;jettySize=auto;html=1;exitX=0.5;exitY=1;exitDx=0;exitDy=0;exitPerimeter=0;entryX=0.5;entryY=0;entryDx=0;entryDy=0;" edge="1" parent="1" source="27f1Ki7FUUIDglzsM97B-1" target="27f1Ki7FUUIDglzsM97B-2">
          <mxGeometry relative="1" as="geometry" />
        </mxCell>
        <mxCell id="27f1Ki7FUUIDglzsM97B-1" value="&lt;font style=&quot;font-size: 18px;&quot;&gt;Inicio&lt;/font&gt;" style="strokeWidth=2;html=1;shape=mxgraph.flowchart.start_1;whiteSpace=wrap;" vertex="1" parent="1">
          <mxGeometry x="364" y="340" width="100" height="60" as="geometry" />
        </mxCell>
        <mxCell id="27f1Ki7FUUIDglzsM97B-2" value="Ingresar usuario y contraseña" style="shape=parallelogram;perimeter=parallelogramPerimeter;whiteSpace=wrap;html=1;fixedSize=1;" vertex="1" parent="1">
          <mxGeometry x="321" y="450" width="186" height="60" as="geometry" />
        </mxCell>
        <mxCell id="27f1Ki7FUUIDglzsM97B-9" style="edgeStyle=orthogonalEdgeStyle;rounded=0;orthogonalLoop=1;jettySize=auto;html=1;exitX=0.5;exitY=1;exitDx=0;exitDy=0;exitPerimeter=0;entryX=0.5;entryY=0;entryDx=0;entryDy=0;" edge="1" parent="1" source="27f1Ki7FUUIDglzsM97B-3" target="27f1Ki7FUUIDglzsM97B-5">
          <mxGeometry relative="1" as="geometry" />
        </mxCell>
        <mxCell id="27f1Ki7FUUIDglzsM97B-3" value="¿Ususario y contraseña correctos?" style="strokeWidth=2;html=1;shape=mxgraph.flowchart.decision;whiteSpace=wrap;" vertex="1" parent="1">
          <mxGeometry x="329.5" y="550" width="169" height="130" as="geometry" />
        </mxCell>
        <mxCell id="27f1Ki7FUUIDglzsM97B-38" style="edgeStyle=orthogonalEdgeStyle;rounded=0;orthogonalLoop=1;jettySize=auto;html=1;exitX=0;exitY=0.25;exitDx=0;exitDy=0;entryX=0.5;entryY=0;entryDx=0;entryDy=0;" edge="1" parent="1" source="27f1Ki7FUUIDglzsM97B-5" target="27f1Ki7FUUIDglzsM97B-20">
          <mxGeometry relative="1" as="geometry" />
        </mxCell>
        <mxCell id="27f1Ki7FUUIDglzsM97B-5" value="Acceder al sistema" style="rounded=0;whiteSpace=wrap;html=1;" vertex="1" parent="1">
          <mxGeometry x="354" y="720" width="120" height="60" as="geometry" />
        </mxCell>
        <mxCell id="27f1Ki7FUUIDglzsM97B-6" value="&lt;font style=&quot;font-size: 18px;&quot;&gt;Fin&lt;/font&gt;" style="strokeWidth=2;html=1;shape=mxgraph.flowchart.start_1;whiteSpace=wrap;" vertex="1" parent="1">
          <mxGeometry x="440" y="1020" width="100" height="60" as="geometry" />
        </mxCell>
        <mxCell id="27f1Ki7FUUIDglzsM97B-8" style="edgeStyle=orthogonalEdgeStyle;rounded=0;orthogonalLoop=1;jettySize=auto;html=1;exitX=0.5;exitY=1;exitDx=0;exitDy=0;entryX=0.5;entryY=0;entryDx=0;entryDy=0;entryPerimeter=0;" edge="1" parent="1" source="27f1Ki7FUUIDglzsM97B-2" target="27f1Ki7FUUIDglzsM97B-3">
          <mxGeometry relative="1" as="geometry" />
        </mxCell>
        <mxCell id="27f1Ki7FUUIDglzsM97B-11" style="edgeStyle=orthogonalEdgeStyle;rounded=0;orthogonalLoop=1;jettySize=auto;html=1;exitX=1;exitY=0.5;exitDx=0;exitDy=0;exitPerimeter=0;entryX=0;entryY=0.5;entryDx=0;entryDy=0;entryPerimeter=0;endArrow=none;endFill=0;" edge="1" parent="1" source="27f1Ki7FUUIDglzsM97B-3">
          <mxGeometry relative="1" as="geometry">
            <mxPoint x="550" y="615" as="targetPoint" />
          </mxGeometry>
        </mxCell>
        <mxCell id="27f1Ki7FUUIDglzsM97B-12" value="NO" style="text;html=1;align=center;verticalAlign=middle;resizable=0;points=[];autosize=1;strokeColor=none;fillColor=none;" vertex="1" parent="1">
          <mxGeometry x="490" y="578" width="40" height="30" as="geometry" />
        </mxCell>
        <mxCell id="27f1Ki7FUUIDglzsM97B-13" value="SI" style="text;html=1;align=center;verticalAlign=middle;resizable=0;points=[];autosize=1;strokeColor=none;fillColor=none;" vertex="1" parent="1">
          <mxGeometry x="425" y="678" width="30" height="30" as="geometry" />
        </mxCell>
        <mxCell id="27f1Ki7FUUIDglzsM97B-18" value="Mensaje de error" style="shape=parallelogram;perimeter=parallelogramPerimeter;whiteSpace=wrap;html=1;fixedSize=1;" vertex="1" parent="1">
          <mxGeometry x="540" y="578" width="120" height="60" as="geometry" />
        </mxCell>
        <mxCell id="27f1Ki7FUUIDglzsM97B-20" value="Imprime un reporte de seccion iniciada" style="shape=document;whiteSpace=wrap;html=1;boundedLbl=1;" vertex="1" parent="1">
          <mxGeometry x="201" y="820" width="120" height="80" as="geometry" />
        </mxCell>
        <mxCell id="27f1Ki7FUUIDglzsM97B-25" value="Imprime un reporte general de todas las sesiones&amp;nbsp;" style="strokeWidth=2;html=1;shape=mxgraph.flowchart.multi-document;whiteSpace=wrap;" vertex="1" parent="1">
          <mxGeometry x="480" y="820" width="150" height="90" as="geometry" />
        </mxCell>
        <mxCell id="27f1Ki7FUUIDglzsM97B-26" style="edgeStyle=orthogonalEdgeStyle;rounded=0;orthogonalLoop=1;jettySize=auto;html=1;exitX=0.5;exitY=1;exitDx=0;exitDy=0;entryX=1;entryY=0.5;entryDx=0;entryDy=0;entryPerimeter=0;" edge="1" parent="1" source="27f1Ki7FUUIDglzsM97B-18" target="27f1Ki7FUUIDglzsM97B-6">
          <mxGeometry relative="1" as="geometry">
            <Array as="points">
              <mxPoint x="670" y="638" />
              <mxPoint x="670" y="1050" />
            </Array>
          </mxGeometry>
        </mxCell>
        <mxCell id="27f1Ki7FUUIDglzsM97B-29" style="edgeStyle=orthogonalEdgeStyle;rounded=0;orthogonalLoop=1;jettySize=auto;html=1;exitX=1;exitY=0.75;exitDx=0;exitDy=0;entryX=0;entryY=0.5;entryDx=0;entryDy=0;entryPerimeter=0;" edge="1" parent="1" source="27f1Ki7FUUIDglzsM97B-20" target="27f1Ki7FUUIDglzsM97B-6">
          <mxGeometry relative="1" as="geometry" />
        </mxCell>
        <mxCell id="27f1Ki7FUUIDglzsM97B-32" style="edgeStyle=orthogonalEdgeStyle;rounded=0;orthogonalLoop=1;jettySize=auto;html=1;exitX=0.5;exitY=0.88;exitDx=0;exitDy=0;exitPerimeter=0;entryX=0.855;entryY=0.145;entryDx=0;entryDy=0;entryPerimeter=0;" edge="1" parent="1" source="27f1Ki7FUUIDglzsM97B-25" target="27f1Ki7FUUIDglzsM97B-6">
          <mxGeometry relative="1" as="geometry">
            <Array as="points">
              <mxPoint x="555" y="980" />
              <mxPoint x="525" y="980" />
            </Array>
          </mxGeometry>
        </mxCell>
        <mxCell id="27f1Ki7FUUIDglzsM97B-39" style="edgeStyle=orthogonalEdgeStyle;rounded=0;orthogonalLoop=1;jettySize=auto;html=1;exitX=1;exitY=0.25;exitDx=0;exitDy=0;entryX=0.5;entryY=0;entryDx=0;entryDy=0;entryPerimeter=0;" edge="1" parent="1" source="27f1Ki7FUUIDglzsM97B-5" target="27f1Ki7FUUIDglzsM97B-25">
          <mxGeometry relative="1" as="geometry" />
        </mxCell>
      </root>
    </mxGraphModel>
  </diagram>
</mxfile>
